<svg height="512pt" viewBox="-60 0 512 512" width="512pt" xmlns="http://www.w3.org/2000/svg"><path d="m366.933594 0h-307.199219c-32.976563.0390625-59.6953125 26.757812-59.734375 59.734375v392.53125c.0390625 32.976563 26.757812 59.695313 59.734375 59.734375h307.199219c14.136718 0 25.601562-11.460938 25.601562-25.601562v-460.796876c0-14.140624-11.464844-25.601562-25.601562-25.601562zm-226.867188 494.933594-71.800781-71.800782v-231.867187l71.800781-71.800781h163.601563l71.796875 71.800781v231.867187l-71.796875 71.800782zm-24.132812-375.46875-47.667969 47.667968v-47.667968zm-47.667969 327.800781 47.667969 47.667969h-47.667969zm259.535156-327.800781h47.664063v47.667968zm-268.066406-102.398438h307.199219c4.710937 0 8.53125 3.820313 8.53125 8.535156v8.53125h-247.464844c-4.710938 0-8.535156 3.820313-8.535156 8.535157 0 4.710937 3.824218 8.53125 8.535156 8.53125h247.464844v17.066406h-324.265625c-4.710938 0-8.53125 3.820313-8.53125 8.535156 0 4.710938 3.820312 8.53125 8.53125 8.53125h324.265625v17.066407h-315.730469c-23.566406 0-42.667969-19.101563-42.667969-42.664063 0-23.566406 19.101563-42.667969 42.667969-42.667969zm-42.667969 435.199219v-350.8125c9.160156 9.378906 21.15625 15.46875 34.132813 17.332031v375.292969c-19.851563-4.082031-34.105469-21.542969-34.132813-41.8125zm349.867188 42.667969h-39.132813l47.664063-47.667969v39.132813c0 4.714843-3.820313 8.535156-8.53125 8.535156zm0 0"/><path d="m59.734375 51.199219h34.132813c4.710937 0 8.53125-3.820313 8.53125-8.53125 0-4.714844-3.820313-8.535157-8.53125-8.535157h-34.132813c-4.714844 0-8.535156 3.820313-8.535156 8.535157 0 4.710937 3.820312 8.53125 8.535156 8.53125zm0 0"/><path d="m264.535156 153.601562h-85.335937c-42.394531.046876-76.753907 34.402344-76.800781 76.796876v76.800781c.046874 24.957031 18.0625 46.253906 42.667968 50.433593v51.96875c1.445313 24.859376 22.667969 43.90625 47.539063 42.664063h58.523437c24.871094 1.242187 46.09375-17.804687 47.539063-42.664063v-51.96875c24.601562-4.179687 42.617187-25.476562 42.664062-50.433593v-76.800781c-.046875-42.394532-34.402343-76.75-76.796875-76.796876zm-13.40625 281.597657h-58.523437c-15.4375 1.207031-28.996094-10.183594-30.472657-25.597657v-17.066406h17.066407v8.53125c0 4.714844 3.820312 8.535156 8.535156 8.535156 4.710937 0 8.53125-3.820312 8.53125-8.535156v-8.53125h17.066406v8.53125c0 4.714844 3.820313 8.535156 8.535157 8.535156 4.710937 0 8.53125-3.820312 8.53125-8.535156v-8.53125h17.066406v8.53125c0 4.714844 3.824218 8.535156 8.535156 8.535156s8.535156-3.820312 8.535156-8.535156v-8.53125h17.066406v17.066406c-1.476562 15.414063-15.035156 26.804688-30.472656 25.597657zm73.136719-128c0 18.851562-15.28125 34.132812-34.132813 34.132812h-8.53125c-4.714843 0-8.535156 3.820313-8.535156 8.535157 0 4.710937 3.820313 8.53125 8.535156 8.53125v17.066406h-17.066406v-8.53125c0-4.714844-3.824218-8.535156-8.535156-8.535156s-8.535156 3.820312-8.535156 8.535156v8.53125h-17.066406v-8.53125c0-4.714844-3.820313-8.535156-8.53125-8.535156-4.714844 0-8.535157 3.820312-8.535157 8.535156v8.53125h-17.066406v-8.53125c0-4.714844-3.820313-8.535156-8.53125-8.535156-4.714844 0-8.535156 3.820312-8.535156 8.535156v8.53125h-17.066407v-17.066406c4.714844 0 8.535157-3.820313 8.535157-8.53125 0-4.714844-3.820313-8.535157-8.535157-8.535157h-8.53125c-18.851562 0-34.136718-15.28125-34.136718-34.132812v-76.800781c.039062-32.972657 26.761718-59.695313 59.734375-59.730469h85.335937c32.972656.035156 59.695313 26.757812 59.730469 59.730469zm0 0"/><path d="m213.332031 253.160156c0-31.292968-32.109375-31.292968-42.664062-31.292968-23.566407 0-42.667969 19.101562-42.667969 42.667968 0 23.5625 19.101562 42.664063 42.667969 42.664063 25.648437 0 42.664062-32.527344 42.664062-54.039063zm-42.664062 36.972656c-14.140625 0-25.601563-11.460937-25.601563-25.597656 0-14.140625 11.460938-25.601562 25.601563-25.601562 23.644531 0 25.597656 6.722656 25.597656 14.226562 0 15.460938-12.902344 36.972656-25.597656 36.972656zm0 0"/><path d="m273.066406 221.867188c-10.554687 0-42.667968 0-42.667968 31.292968 0 21.511719 17.015624 54.039063 42.667968 54.039063 23.5625 0 42.667969-19.101563 42.667969-42.664063 0-23.566406-19.105469-42.667968-42.667969-42.667968zm0 68.265624c-12.699218 0-25.601562-21.511718-25.601562-36.972656 0-7.503906 1.957031-14.226562 25.601562-14.226562 14.140625 0 25.601563 11.460937 25.601563 25.601562 0 14.136719-11.460938 25.597656-25.601563 25.597656zm0 0"/><path d="m236.5 297.933594c-3.082031-5.140625-8.636719-8.285156-14.632812-8.285156-5.996094 0-11.550782 3.144531-14.636719 8.285156l-10.527344 17.550781c-3.164063 5.273437-3.246094 11.839844-.21875 17.191406 3.03125 5.351563 8.703125 8.65625 14.851563 8.65625h21.0625c6.148437 0 11.820312-3.304687 14.851562-8.65625 3.027344-5.351562 2.945312-11.917969-.21875-17.191406zm-25.164062 26.332031 10.53125-17.550781 10.53125 17.550781zm0 0"/></svg>